<svg xmlns="http://www.w3.org/2000/svg" width="900" height="360" viewBox="0 0 900 360">
<rect width="100%" height="100%" fill="white"/>
<line x1="55" y1="180" x2="845" y2="180" stroke="#555" stroke-width="1"/>
<line x1="55" y1="256.5882754619135" x2="845" y2="256.5882754619135" stroke="#2b6" stroke-dasharray="5 5"/>
<line x1="55" y1="103.41172453808652" x2="845" y2="103.41172453808652" stroke="#c44" stroke-dasharray="5 5"/>
<polyline points="55.0,271.8 153.8,278.8 252.5,305.0 351.2,282.4 450.0,274.0 548.8,277.0 647.5,249.7 746.2,267.4 845.0,233.5 " fill="none" stroke="#2468a2" stroke-width="2"/>
<g fill="#2468a2"><circle cx="55.0" cy="271.8" r="4"/><circle cx="153.8" cy="278.8" r="4"/><circle cx="252.5" cy="305.0" r="4"/><circle cx="351.2" cy="282.4" r="4"/><circle cx="450.0" cy="274.0" r="4"/><circle cx="548.8" cy="277.0" r="4"/><circle cx="647.5" cy="249.7" r="4"/><circle cx="746.2" cy="267.4" r="4"/><circle cx="845.0" cy="233.5" r="4"/></g>
<text x="55" y="24" font-family="sans-serif" font-size="16">candidate − base paired delta (ns/mail)</text>
<text x="8" y="184" font-family="sans-serif" font-size="12">0</text>
<text x="8" y="348" font-family="sans-serif" font-size="12">faster</text>
<text x="8" y="18" font-family="sans-serif" font-size="12">slower</text>
</svg>
