<svg xmlns="http://www.w3.org/2000/svg" width="900" height="360" viewBox="0 0 900 360">
<rect width="100%" height="100%" fill="white"/>
<line x1="55" y1="180" x2="845" y2="180" stroke="#555" stroke-width="1"/>
<line x1="55" y1="202.2829216951156" x2="845" y2="202.2829216951156" stroke="#2b6" stroke-dasharray="5 5"/>
<line x1="55" y1="157.7170783048844" x2="845" y2="157.7170783048844" stroke="#c44" stroke-dasharray="5 5"/>
<polyline points="55.0,305.0 153.8,285.7 252.5,303.8 351.2,285.4 450.0,283.7 548.8,285.3 647.5,282.2 746.2,290.4 845.0,297.1 " fill="none" stroke="#2468a2" stroke-width="2"/>
<g fill="#2468a2"><circle cx="55.0" cy="305.0" r="4"/><circle cx="153.8" cy="285.7" r="4"/><circle cx="252.5" cy="303.8" r="4"/><circle cx="351.2" cy="285.4" r="4"/><circle cx="450.0" cy="283.7" r="4"/><circle cx="548.8" cy="285.3" r="4"/><circle cx="647.5" cy="282.2" r="4"/><circle cx="746.2" cy="290.4" r="4"/><circle cx="845.0" cy="297.1" r="4"/></g>
<text x="55" y="24" font-family="sans-serif" font-size="16">candidate − base paired delta (ns/mail)</text>
<text x="8" y="184" font-family="sans-serif" font-size="12">0</text>
<text x="8" y="348" font-family="sans-serif" font-size="12">faster</text>
<text x="8" y="18" font-family="sans-serif" font-size="12">slower</text>
</svg>
