<svg xmlns="http://www.w3.org/2000/svg" width="1200" height="420" viewBox="0 0 1200 420">
<rect width="100%" height="100%" fill="white"/>
<line x1="60" y1="360" x2="1140" y2="360" stroke="#555" stroke-width="1"/>
<rect x="60.00" y="189.37" width="21.04" height="170.63" fill="#2468a2"><title>0: native-forecast-hint-050 = 10.333</title></rect><rect x="82.04" y="253.34" width="21.04" height="106.66" fill="#2468a2"><title>1: native-forecast-hint-075 = 6.459</title></rect><rect x="104.08" y="360.00" width="21.04" height="0.00" fill="#2468a2"><title>2: native-forecast-hint-100 = 0.000</title></rect><rect x="126.12" y="360.00" width="21.04" height="0.00" fill="#2468a2"><title>3: native-forecast-hint-125 = 0.000</title></rect><rect x="148.16" y="360.00" width="21.04" height="0.00" fill="#2468a2"><title>4: native-forecast-hint-200 = 0.000</title></rect><rect x="170.20" y="360.00" width="21.04" height="0.00" fill="#2468a2"><title>5: native-forecast-hint-400 = 0.000</title></rect><rect x="192.24" y="309.07" width="21.04" height="50.93" fill="#2468a2"><title>6: native-chunk-hint-075-pages-01 = 3.084</title></rect><rect x="214.29" y="280.19" width="21.04" height="79.81" fill="#2468a2"><title>7: native-chunk-hint-075-pages-04 = 4.833</title></rect><rect x="236.33" y="266.42" width="21.04" height="93.58" fill="#2468a2"><title>8: native-chunk-hint-075-pages-16 = 5.667</title></rect><rect x="258.37" y="60.00" width="21.04" height="300.00" fill="#2468a2"><title>9: native-chunk-hint-075-pages-64 = 18.167</title></rect><rect x="280.41" y="360.00" width="21.04" height="0.00" fill="#2468a2"><title>10: native-chunk-hint-100-pages-01 = 0.000</title></rect><rect x="302.45" y="360.00" width="21.04" height="0.00" fill="#2468a2"><title>11: native-chunk-hint-100-pages-04 = 0.000</title></rect><rect x="324.49" y="360.00" width="21.04" height="0.00" fill="#2468a2"><title>12: native-chunk-hint-100-pages-16 = 0.000</title></rect><rect x="346.53" y="360.00" width="21.04" height="0.00" fill="#2468a2"><title>13: native-chunk-hint-100-pages-64 = 0.000</title></rect><rect x="368.57" y="360.00" width="21.04" height="0.00" fill="#2468a2"><title>14: native-chunk-hint-125-pages-01 = 0.000</title></rect><rect x="390.61" y="360.00" width="21.04" height="0.00" fill="#2468a2"><title>15: native-chunk-hint-125-pages-04 = 0.000</title></rect><rect x="412.65" y="360.00" width="21.04" height="0.00" fill="#2468a2"><title>16: native-chunk-hint-125-pages-16 = 0.000</title></rect><rect x="434.69" y="360.00" width="21.04" height="0.00" fill="#2468a2"><title>17: native-chunk-hint-125-pages-64 = 0.000</title></rect><rect x="456.73" y="360.00" width="21.04" height="0.00" fill="#2468a2"><title>18: native-sparse-live-025-packed-live-bitmap = 0.000</title></rect><rect x="478.78" y="360.00" width="21.04" height="0.00" fill="#2468a2"><title>19: native-sparse-live-025-packed-capacity-scan = 0.000</title></rect><rect x="500.82" y="360.00" width="21.04" height="0.00" fill="#2468a2"><title>20: native-sparse-live-025-random-live-bitmap = 0.000</title></rect><rect x="522.86" y="360.00" width="21.04" height="0.00" fill="#2468a2"><title>21: native-sparse-live-025-random-capacity-scan = 0.000</title></rect><rect x="544.90" y="360.00" width="21.04" height="0.00" fill="#2468a2"><title>22: native-sparse-live-050-packed-live-bitmap = 0.000</title></rect><rect x="566.94" y="360.00" width="21.04" height="0.00" fill="#2468a2"><title>23: native-sparse-live-050-packed-capacity-scan = 0.000</title></rect><rect x="588.98" y="360.00" width="21.04" height="0.00" fill="#2468a2"><title>24: native-sparse-live-050-random-live-bitmap = 0.000</title></rect><rect x="611.02" y="360.00" width="21.04" height="0.00" fill="#2468a2"><title>25: native-sparse-live-050-random-capacity-scan = 0.000</title></rect><rect x="633.06" y="360.00" width="21.04" height="0.00" fill="#2468a2"><title>26: native-sparse-live-075-packed-live-bitmap = 0.000</title></rect><rect x="655.10" y="360.00" width="21.04" height="0.00" fill="#2468a2"><title>27: native-sparse-live-075-packed-capacity-scan = 0.000</title></rect><rect x="677.14" y="360.00" width="21.04" height="0.00" fill="#2468a2"><title>28: native-sparse-live-075-random-live-bitmap = 0.000</title></rect><rect x="699.18" y="360.00" width="21.04" height="0.00" fill="#2468a2"><title>29: native-sparse-live-075-random-capacity-scan = 0.000</title></rect><rect x="721.22" y="360.00" width="21.04" height="0.00" fill="#2468a2"><title>30: native-sparse-live-090-packed-live-bitmap = 0.000</title></rect><rect x="743.27" y="360.00" width="21.04" height="0.00" fill="#2468a2"><title>31: native-sparse-live-090-packed-capacity-scan = 0.000</title></rect><rect x="765.31" y="360.00" width="21.04" height="0.00" fill="#2468a2"><title>32: native-sparse-live-090-random-live-bitmap = 0.000</title></rect><rect x="787.35" y="360.00" width="21.04" height="0.00" fill="#2468a2"><title>33: native-sparse-live-090-random-capacity-scan = 0.000</title></rect><rect x="809.39" y="360.00" width="21.04" height="0.00" fill="#2468a2"><title>34: native-sparse-live-100-packed-live-bitmap = 0.000</title></rect><rect x="831.43" y="360.00" width="21.04" height="0.00" fill="#2468a2"><title>35: native-sparse-live-100-packed-capacity-scan = 0.000</title></rect><rect x="853.47" y="360.00" width="21.04" height="0.00" fill="#2468a2"><title>36: native-boundary-minus-one = 0.000</title></rect><rect x="875.51" y="360.00" width="21.04" height="0.00" fill="#2468a2"><title>37: native-boundary-exact = 0.000</title></rect><rect x="897.55" y="274.00" width="21.04" height="86.00" fill="#2468a2"><title>38: native-boundary-plus-one = 5.208</title></rect><rect x="919.59" y="312.52" width="21.04" height="47.48" fill="#8b5a2b"><title>39: wasm-forecast-hint-050 = 2.875</title></rect><rect x="941.63" y="327.67" width="21.04" height="32.33" fill="#8b5a2b"><title>40: wasm-forecast-hint-075 = 1.958</title></rect><rect x="963.67" y="360.00" width="21.04" height="0.00" fill="#8b5a2b"><title>41: wasm-forecast-hint-100 = 0.000</title></rect><rect x="985.71" y="360.00" width="21.04" height="0.00" fill="#8b5a2b"><title>42: wasm-forecast-hint-125 = 0.000</title></rect><rect x="1007.76" y="360.00" width="21.04" height="0.00" fill="#8b5a2b"><title>43: wasm-forecast-hint-200 = 0.000</title></rect><rect x="1029.80" y="360.00" width="21.04" height="0.00" fill="#8b5a2b"><title>44: wasm-forecast-hint-400 = 0.000</title></rect><rect x="1051.84" y="335.92" width="21.04" height="24.08" fill="#8b5a2b"><title>45: wasm-chunk-hint-075-pages-01 = 1.458</title></rect><rect x="1073.88" y="312.52" width="21.04" height="47.48" fill="#8b5a2b"><title>46: wasm-chunk-hint-075-pages-04 = 2.875</title></rect><rect x="1095.92" y="307.02" width="21.04" height="52.98" fill="#8b5a2b"><title>47: wasm-chunk-hint-075-pages-16 = 3.208</title></rect><rect x="1117.96" y="289.12" width="21.04" height="70.88" fill="#8b5a2b"><title>48: wasm-chunk-hint-075-pages-64 = 4.292</title></rect>
<text x="60" y="28" font-family="sans-serif" font-size="16">Maximum incremental chunk-growth pause by cell (microseconds)</text>
<text x="8" y="64" font-family="sans-serif" font-size="12">18.167</text>
<text x="8" y="364" font-family="sans-serif" font-size="12">0</text>
</svg>
