<svg xmlns="http://www.w3.org/2000/svg" width="1200" height="420" viewBox="0 0 1200 420">
<rect width="100%" height="100%" fill="white"/>
<line x1="60" y1="360" x2="1140" y2="360" stroke="#555" stroke-width="1"/>
<rect x="60.00" y="203.22" width="21.04" height="156.78" fill="#2468a2"><title>0: native-forecast-hint-050 = 1.158</title></rect><rect x="82.04" y="207.99" width="21.04" height="152.01" fill="#2468a2"><title>1: native-forecast-hint-075 = 1.123</title></rect><rect x="104.08" y="206.83" width="21.04" height="153.17" fill="#2468a2"><title>2: native-forecast-hint-100 = 1.132</title></rect><rect x="126.12" y="209.01" width="21.04" height="150.99" fill="#2468a2"><title>3: native-forecast-hint-125 = 1.116</title></rect><rect x="148.16" y="206.76" width="21.04" height="153.24" fill="#2468a2"><title>4: native-forecast-hint-200 = 1.132</title></rect><rect x="170.20" y="206.43" width="21.04" height="153.57" fill="#2468a2"><title>5: native-forecast-hint-400 = 1.135</title></rect><rect x="192.24" y="201.80" width="21.04" height="158.20" fill="#2468a2"><title>6: native-chunk-hint-075-pages-01 = 1.169</title></rect><rect x="214.29" y="205.97" width="21.04" height="154.03" fill="#2468a2"><title>7: native-chunk-hint-075-pages-04 = 1.138</title></rect><rect x="236.33" y="206.39" width="21.04" height="153.61" fill="#2468a2"><title>8: native-chunk-hint-075-pages-16 = 1.135</title></rect><rect x="258.37" y="207.96" width="21.04" height="152.04" fill="#2468a2"><title>9: native-chunk-hint-075-pages-64 = 1.123</title></rect><rect x="280.41" y="200.90" width="21.04" height="159.10" fill="#2468a2"><title>10: native-chunk-hint-100-pages-01 = 1.176</title></rect><rect x="302.45" y="204.96" width="21.04" height="155.04" fill="#2468a2"><title>11: native-chunk-hint-100-pages-04 = 1.146</title></rect><rect x="324.49" y="208.02" width="21.04" height="151.98" fill="#2468a2"><title>12: native-chunk-hint-100-pages-16 = 1.123</title></rect><rect x="346.53" y="206.03" width="21.04" height="153.97" fill="#2468a2"><title>13: native-chunk-hint-100-pages-64 = 1.138</title></rect><rect x="368.57" y="203.14" width="21.04" height="156.86" fill="#2468a2"><title>14: native-chunk-hint-125-pages-01 = 1.159</title></rect><rect x="390.61" y="203.18" width="21.04" height="156.82" fill="#2468a2"><title>15: native-chunk-hint-125-pages-04 = 1.159</title></rect><rect x="412.65" y="206.85" width="21.04" height="153.15" fill="#2468a2"><title>16: native-chunk-hint-125-pages-16 = 1.132</title></rect><rect x="434.69" y="207.90" width="21.04" height="152.10" fill="#2468a2"><title>17: native-chunk-hint-125-pages-64 = 1.124</title></rect><rect x="456.73" y="210.34" width="21.04" height="149.66" fill="#2468a2"><title>18: native-sparse-live-025-packed-live-bitmap = 1.106</title></rect><rect x="478.78" y="136.39" width="21.04" height="223.61" fill="#2468a2"><title>19: native-sparse-live-025-packed-capacity-scan = 1.652</title></rect><rect x="500.82" y="99.46" width="21.04" height="260.54" fill="#2468a2"><title>20: native-sparse-live-025-random-live-bitmap = 1.925</title></rect><rect x="522.86" y="60.00" width="21.04" height="300.00" fill="#2468a2"><title>21: native-sparse-live-025-random-capacity-scan = 2.217</title></rect><rect x="544.90" y="205.63" width="21.04" height="154.37" fill="#2468a2"><title>22: native-sparse-live-050-packed-live-bitmap = 1.141</title></rect><rect x="566.94" y="178.30" width="21.04" height="181.70" fill="#2468a2"><title>23: native-sparse-live-050-packed-capacity-scan = 1.342</title></rect><rect x="588.98" y="162.72" width="21.04" height="197.28" fill="#2468a2"><title>24: native-sparse-live-050-random-live-bitmap = 1.458</title></rect><rect x="611.02" y="145.08" width="21.04" height="214.92" fill="#2468a2"><title>25: native-sparse-live-050-random-capacity-scan = 1.588</title></rect><rect x="633.06" y="208.54" width="21.04" height="151.46" fill="#2468a2"><title>26: native-sparse-live-075-packed-live-bitmap = 1.119</title></rect><rect x="655.10" y="188.42" width="21.04" height="171.58" fill="#2468a2"><title>27: native-sparse-live-075-packed-capacity-scan = 1.268</title></rect><rect x="677.14" y="191.56" width="21.04" height="168.44" fill="#2468a2"><title>28: native-sparse-live-075-random-live-bitmap = 1.245</title></rect><rect x="699.18" y="182.95" width="21.04" height="177.05" fill="#2468a2"><title>29: native-sparse-live-075-random-capacity-scan = 1.308</title></rect><rect x="721.22" y="203.18" width="21.04" height="156.82" fill="#2468a2"><title>30: native-sparse-live-090-packed-live-bitmap = 1.159</title></rect><rect x="743.27" y="194.04" width="21.04" height="165.96" fill="#2468a2"><title>31: native-sparse-live-090-packed-capacity-scan = 1.226</title></rect><rect x="765.31" y="200.80" width="21.04" height="159.20" fill="#2468a2"><title>32: native-sparse-live-090-random-live-bitmap = 1.176</title></rect><rect x="787.35" y="187.74" width="21.04" height="172.26" fill="#2468a2"><title>33: native-sparse-live-090-random-capacity-scan = 1.273</title></rect><rect x="809.39" y="208.16" width="21.04" height="151.84" fill="#2468a2"><title>34: native-sparse-live-100-packed-live-bitmap = 1.122</title></rect><rect x="831.43" y="196.54" width="21.04" height="163.46" fill="#2468a2"><title>35: native-sparse-live-100-packed-capacity-scan = 1.208</title></rect><rect x="853.47" y="205.02" width="21.04" height="154.98" fill="#2468a2"><title>36: native-boundary-minus-one = 1.145</title></rect><rect x="875.51" y="219.91" width="21.04" height="140.09" fill="#2468a2"><title>37: native-boundary-exact = 1.035</title></rect><rect x="897.55" y="212.00" width="21.04" height="148.00" fill="#2468a2"><title>38: native-boundary-plus-one = 1.094</title></rect><rect x="919.59" y="185.27" width="21.04" height="174.73" fill="#8b5a2b"><title>39: wasm-forecast-hint-050 = 1.291</title></rect><rect x="941.63" y="186.05" width="21.04" height="173.95" fill="#8b5a2b"><title>40: wasm-forecast-hint-075 = 1.285</title></rect><rect x="963.67" y="186.65" width="21.04" height="173.35" fill="#8b5a2b"><title>41: wasm-forecast-hint-100 = 1.281</title></rect><rect x="985.71" y="186.95" width="21.04" height="173.05" fill="#8b5a2b"><title>42: wasm-forecast-hint-125 = 1.279</title></rect><rect x="1007.76" y="184.69" width="21.04" height="175.31" fill="#8b5a2b"><title>43: wasm-forecast-hint-200 = 1.295</title></rect><rect x="1029.80" y="186.59" width="21.04" height="173.41" fill="#8b5a2b"><title>44: wasm-forecast-hint-400 = 1.281</title></rect><rect x="1051.84" y="181.60" width="21.04" height="178.40" fill="#8b5a2b"><title>45: wasm-chunk-hint-075-pages-01 = 1.318</title></rect><rect x="1073.88" y="187.19" width="21.04" height="172.81" fill="#8b5a2b"><title>46: wasm-chunk-hint-075-pages-04 = 1.277</title></rect><rect x="1095.92" y="186.25" width="21.04" height="173.75" fill="#8b5a2b"><title>47: wasm-chunk-hint-075-pages-16 = 1.284</title></rect><rect x="1117.96" y="186.62" width="21.04" height="173.38" fill="#8b5a2b"><title>48: wasm-chunk-hint-075-pages-64 = 1.281</title></rect>
<text x="60" y="28" font-family="sans-serif" font-size="16">Hot bullet update by capacity-study cell (ns/update)</text>
<text x="8" y="64" font-family="sans-serif" font-size="12">2.217</text>
<text x="8" y="364" font-family="sans-serif" font-size="12">0</text>
</svg>
